<svg width="18" height="18" viewBox="0 0 18 18" fill="none" xmlns="http://www.w3.org/2000/svg">
<g clip-path="url(#clip0_183_726)">
<path d="M11.25 1.49952H8.25C7.85217 1.49952 7.47064 1.65756 7.18934 1.93889C6.90803 2.22022 6.75 2.60178 6.75 2.99964V11.2503C6.75 11.6482 6.90803 12.0297 7.18934 12.311C7.47064 12.5924 7.85217 12.7504 8.25 12.7504H14.25C14.6478 12.7504 15.0294 12.5924 15.3107 12.311C15.592 12.0297 15.75 11.6482 15.75 11.2503V5.99988M11.25 1.49952C11.4877 1.49893 11.7231 1.54543 11.9427 1.63632C12.1623 1.72721 12.3617 1.86069 12.5295 2.02906L15.2205 4.72028C15.3889 4.88805 15.5223 5.0875 15.6132 5.30712C15.7041 5.52674 15.7506 5.76219 15.75 5.99988M11.25 1.49952V5.24982C11.25 5.44875 11.329 5.63953 11.4697 5.78019C11.6103 5.92086 11.8011 5.99988 12 5.99988L15.75 5.99988M3.75 5.24982C3.35217 5.24982 2.97064 5.40786 2.68934 5.68919C2.40804 5.97052 2.25 6.35208 2.25 6.74994V15.0006C2.25 15.3984 2.40804 15.78 2.68934 16.0613C2.97064 16.3427 3.35217 16.5007 3.75 16.5007H9.75C10.0133 16.5007 10.272 16.4314 10.5 16.2997C10.728 16.1681 10.9173 15.9787 11.049 15.7507" stroke="#94A3B8" stroke-width="2" stroke-linecap="round"/>
</g>
<defs>
<clipPath id="clip0_183_726">
<rect width="18" height="18" fill="white"/>
</clipPath>
</defs>
</svg>
